<?xml version="1.0" standalone="no"?>
<!DOCTYPE svg PUBLIC "-//W3C//DTD SVG 1.1//EN" "http://www.w3.org/Graphics/SVG/1.1/DTD/svg11.dtd" >
<svg xmlns="http://www.w3.org/2000/svg">
<metadata></metadata>
<defs>
<font id="stonepathmedium" horiz-adv-x="20" >
<font-face units-per-em="2048" ascent="1638" descent="-410" />
<missing-glyph horiz-adv-x="860" />
<glyph horiz-adv-x="2048" />
<glyph horiz-adv-x="2048" />
<glyph unicode="&#xd;" horiz-adv-x="681" />
<glyph unicode=" "  horiz-adv-x="860" />
<glyph unicode="&#x09;" horiz-adv-x="860" />
<glyph unicode="&#xa0;" horiz-adv-x="860" />
<glyph unicode="!" horiz-adv-x="329" d="M21.5 249.5q4.5 34.5 74.5 65.5q113 49 180 -6q57 -45 19 -110q-20 -37 -72 -66l-82 -45l-65 68q-59 59 -54.5 93.5zM82 528.5q-8 63.5 2 255.5q19 365 74 433q31 37 45 2q10 -29 -10 -72q-18 -39 -27.5 -212t-17 -321.5t-25.5 -148.5q-33 0 -41 63.5z" />
<glyph unicode="#" horiz-adv-x="972" d="M20 825q-2 20 14.5 26.5t76.5 4.5l96 -2l4 137q6 139 14 168q20 57 43 -26q14 -51 23 -142l14 -155l111 6q109 6 122 13t25 101q23 145 72 170q14 6 29 -6q27 -20 6 -94q-29 -113 -19 -133q27 -20 121 -21q102 0 141 -12t39 -45q0 -14 -28.5 -18t-106.5 2q-92 6 -122.5 0 t-65.5 -39q-53 -45 -60 -107l-6 -59l137 -10q143 -10 152 -37q8 -23 -102 -25q-63 0 -95 -3t-59 -9t-35 -23.5t-12 -38t-4 -61.5q0 -104 -35 -126.5t-64 5.5q-25 33 -18.5 72t16 86t0.5 61q-10 16 -103 6t-120 -28q-16 -14 -28.5 -81t-36.5 -67q-23 0 -29 46.5t-13.5 101.5 t-29.5 74q-20 16 -21.5 31.5t19 24.5t51.5 7q35 -4 45 5t15 46q6 49 -15.5 75t-87.5 46q-27 8 -46 24.5t-24 28.5zM266 575l80 -6q74 -6 110 21.5t42 93.5l6 70l-103 6q-102 6 -111 -10.5t-18 -96.5z" />
<glyph unicode="$" horiz-adv-x="798" d="M20 555q0 37 35 45q33 4 35 -22q0 -29 68.5 -71t115.5 -42q35 0 44.5 15.5t13.5 86.5q4 68 -3 91.5t-38 43.5q-162 109 -172 211.5t137 171.5q29 14 50.5 34t21.5 32q0 18 12 25.5t34.5 0t49.5 -27.5q39 -27 95 -19.5t67 -15.5q18 -23 17 -38t-20.5 -17t-52.5 8 q-70 27 -92 -7t-22 -161q2 -145 16 -165.5t156 -78.5q80 -31 116.5 -55.5t55.5 -58.5q45 -90 -16.5 -152.5t-196.5 -62.5q-74 0 -96.5 -7.5t-28.5 -33.5q-12 -49 -57.5 -38t-51.5 62q-6 57 -69 86q-223 106 -224 160zM194 913.5q1 -24.5 50 -73.5q68 -72 92 -52q12 10 4 41 q-12 44 -12 107q0 53 -20.5 61.5t-71.5 -28.5q-43 -31 -42 -55.5zM383 457q-4 -27 32 -44.5t91 -15.5t100 23q92 41 92 72q0 39 -176 112q-18 9 -41 17q-72 29 -73 18q-8 -23 -25 -182z" />
<glyph unicode="%" horiz-adv-x="1007" d="M23 1061q-12 49 57.5 104.5t114.5 55.5q31 0 94 -73t63 -106q0 -37 -35.5 -79.5t-85.5 -67.5q-43 -20 -62 -20.5t-58 18.5q-20 10 -34 22.5t-23 32t-12 30.5t-9 41t-10 42zM137 969q2 -6 6 -6q8 0 47 16t69 47t-11 72q-57 59 -96 -29q-29 -66 -15 -100zM150.5 247.5 q29.5 51.5 148.5 192t203 256.5q78 111 139 185q29 35 66.5 87t55 71.5t28.5 11.5q31 -18 7 -68.5t-124 -183.5l-189 -258q-137 -188 -223 -283.5t-106 -81.5q-35 20 -5.5 71.5zM629 319.5q0 89.5 43 159.5q31 49 49 57.5t76 0.5q57 -8 123.5 -60.5t66.5 -87.5 q0 -14 -67 -96q-59 -70 -126 -92.5t-122 6.5q-43 23 -43 112.5zM694 330q6 -57 48 -58.5t96 54.5q37 37 44 56.5t-5 39.5q-20 31 -53 37t-64 -9.5t-50.5 -48t-15.5 -71.5z" />
<glyph unicode="&#x26;" horiz-adv-x="512" d="M20 748q0 55 70 114.5t150 71.5q47 8 69.5 12t45 15.5t28.5 20.5t11 37t3 52.5t-6 79.5q-12 164 2 178q31 31 56 -8q8 -14 14 -101t12 -194.5t12 -144.5q10 -66 -12 -81.5t-74 23.5q-59 45 -136 33t-122 -72q-41 -57 -29.5 -68t105.5 -11q80 0 111.5 -25t25.5 -78 q-6 -31 -35.5 -47t-72.5 -27.5t-62 -25.5q-55 -45 17 -53q35 -4 112 0q106 4 129 -0.5t19 -32.5q-6 -41 -10 -164q-6 -180 -66 -174q-18 2 -37 22q-20 20 -25.5 46t3.5 79l16 131q2 27 -20.5 35t-124.5 15q-127 8 -151.5 36.5t44.5 92.5l53 49l-61 59q-63 57 -64 105z" />
<glyph unicode="'" horiz-adv-x="321" d="M22 928q5 14 39 39q49 37 100.5 113.5t51.5 115.5q0 63 43 64q33 0 43 -27q2 -4 2 -8q-2 -20 -3 -53t-3 -44.5t-7 -34t-16.5 -39t-31 -41t-50.5 -59.5q-100 -111 -117.5 -110.5t-39.5 43.5q-16 27 -11 41z" />
<glyph unicode="(" horiz-adv-x="456" d="M20.5 686q-2.5 94 18.5 107q20 12 20 53q0 31 33 80t123 155q68 80 92 80q39 0 41 -28.5t-33 -67.5q-66 -72 -121 -148.5t-55 -93.5q0 -25 -33 -92q-20 -47 -20 -72.5t27 -95.5q29 -80 111.5 -175t156.5 -134q55 -29 55 -43q0 -27 -23.5 -46.5t-50.5 -14.5 q-45 8 -170.5 154.5t-148.5 213.5q-20 74 -22.5 168z" />
<glyph unicode=")" horiz-adv-x="473" d="M23.5 944q-8.5 22 11.5 47q25 31 37 31q37 0 171 -183.5t177 -289.5q55 -145 19 -294t-154 -265q-111 -111 -127 -43q-4 14 -4 37q0 49 22.5 76.5t61.5 27.5q45 0 100 97.5t55 176.5q0 70 -44 178.5t-85 143.5q-31 25 -31 43q0 27 -73.5 111t-96.5 84q-31 0 -39.5 22z " />
<glyph unicode="*" horiz-adv-x="645" d="M22.5 900.5q14.5 25.5 86.5 19.5q41 -2 56 3t11 21q-8 29 -22 39q-16 12 -48 67.5t-32 71.5q0 53 96 -53q104 -115 121 -125q16 -14 22 -8q16 16 23 106q6 84 39 93q18 4 28 -29l5 -25q8 -51 26.5 -66.5t44.5 5.5q29 25 55.5 -5t0 -56.5t-22.5 -41t37 -14.5 q35 0 59.5 -30.5t14.5 -61.5q-8 -18 -31 -21.5t-44.5 3t-40 6.5t-15.5 -15q0 -8 7 -14t17 -6q35 0 66.5 -42t11.5 -63q-23 -20 -92 21q-90 53 -80 10q2 -12 12 -31q18 -35 9 -64.5t-39.5 -29.5t-51 42t-20.5 106q0 70 -18.5 80t-92.5 -39q-86 -59 -117 -35q-12 12 -2 39 q12 33 -41 76q-53 41 -38.5 66.5z" />
<glyph unicode="+" horiz-adv-x="796" d="M20 672q-2 4 4.5 9t19.5 11t31.5 14.5t41 16.5t49.5 16l153 49l-14 101q-10 92 8 92q2 0 6 -2q12 -4 24.5 -26.5t21.5 -51.5q10 -39 18 -58.5t20.5 -33.5t38 -15t56 3t88.5 16q106 23 148 20.5t42 -28.5q0 -20 -67.5 -45t-149.5 -35q-100 -10 -125.5 -44t0.5 -120 q18 -59 25.5 -106t2.5 -73t-22 -26q-27 0 -43 34t-43 145l-26 118h-150q-147 0 -158 19z" />
<glyph unicode="," horiz-adv-x="350" d="M29 72q23 23 53 -4q20 -16 35.5 -14.5t50.5 28.5t54 61.5t42 118.5q4 16 12.5 17.5t24.5 -13.5q35 -29 29 -78t-33 -98t-74 -85t-92 -38q-49 0 -88 40t-14 65z" />
<glyph unicode="-" horiz-adv-x="624" d="M20 504q1 10 7 20t21 12.5t50 -4t79 -13.5t125 -14t171 -9q78 0 104.5 -6.5t26.5 -24.5q0 -33 -101.5 -41t-262.5 12q-215 27 -220 68z" />
<glyph unicode="." horiz-adv-x="266" d="M26 222.5q-21 54.5 40 117.5q80 86 151 -6q45 -59 17.5 -112.5t-103.5 -53.5q-84 0 -105 54.5zM119 286.5q0 -20.5 20.5 -20.5t20.5 20.5t-20.5 20.5t-20.5 -20.5z" />
<glyph unicode="/" horiz-adv-x="784" d="M19 166q1 8 4.5 15t11.5 20.5t16 26t22.5 36t28.5 45.5q49 84 387 522q70 90 150 203q47 70 63.5 85.5t34.5 0.5q33 -27 25 -53.5t-78 -114.5q-39 -49 -178 -240.5t-256 -336.5q-147 -184 -171 -221t-46 -15q-8 8 -11.5 13.5t-2.5 13.5z" />
<glyph unicode="0" horiz-adv-x="716" d="M20 504q0 68 35 193.5t76 209.5q27 53 35 94t2 58.5t-2 32t27 26.5q37 20 81 12l91 -18q59 -12 139 -97t136 -193.5t56 -180.5q0 -59 -24.5 -132t-63.5 -130q-33 -49 -137 -100.5t-172 -51.5q-100 0 -189.5 88t-89.5 189zM85 475q7 -31 36 -72q47 -68 69 -81 q31 -23 115 -14t150 42q160 80 185.5 237.5t-99.5 307.5q-55 68 -113.5 107.5t-91.5 39.5q-25 0 -71 -44.5t-46 -69.5q0 -12 -29.5 -44t-29.5 -65q0 -25 -32 -99.5t-42 -154.5q-8 -59 -1 -90z" />
<glyph unicode="1" horiz-adv-x="225" d="M23 367q8 18 28.5 169.5t32.5 170.5q8 14 29 193t39 224q49 121 53 -2q2 -43 -4 -114q-10 -160 -34 -254.5t-40 -159t-16 -174.5q0 -131 -21.5 -144.5t-49.5 24.5t-17 67z" />
<glyph unicode="2" horiz-adv-x="768" d="M29.5 306.5q21.5 19.5 99.5 31.5q94 14 174 84q47 43 67.5 66.5t31 42t26.5 38.5q31 37 17.5 119t-62.5 146q-51 68 -112.5 97.5t-108.5 10.5q-49 -18 -58.5 -16t-9.5 28q0 12 13.5 25.5t31.5 21.5q84 33 188.5 -29.5t161.5 -180.5q33 -66 37 -94.5t-12 -90.5 q-16 -55 -56 -117.5t-73 -102.5t-33 -48t88 -8t184.5 -3t108.5 -18q20 -20 4 -26q-33 -12 -514 -50q-98 -8 -134 -4t-52 23q-29 35 -7.5 54.5z" />
<glyph unicode="3" horiz-adv-x="626" d="M27 444q25 37 49 30t20 -50q-6 -49 47 -98q35 -33 70 -41.5t143 -8.5q115 0 139.5 6.5t30.5 39.5q6 47 -62.5 130t-156.5 138q-39 23 -67.5 49.5t-28.5 36.5q0 12 18.5 27.5t44.5 27.5q100 41 108.5 98.5t-77.5 106.5q-76 45 -117 50t-59 -28q-6 -14 -18.5 -22t-18.5 -4 q-16 10 -18 66.5t12 70.5q20 20 103 2t143 -59q53 -33 105 -97.5t52 -95.5q0 -14 -65 -80l-66 -65l101 -101q121 -119 143.5 -236.5t-67.5 -152.5q-49 -18 -172 -0.5t-199 54.5q-66 31 -113 100.5t-24 105.5z" />
<glyph unicode="4" horiz-adv-x="593" d="M20 578q0 106 38 185t48 159q11 70 31 125q16 45 48 53t46 -29q8 -6 4 -23.5t-10 -26.5t-19 -48t-26 -88q-20 -80 -50 -151.5t-30 -123.5q0 -68 48.5 -96.5t158.5 -28.5h117l-14 105q-18 121 -16.5 152.5t24.5 31.5q27 0 39 -62.5t29.5 -135t54.5 -93.5q33 -18 32.5 -51 t-13.5 -82t1 -133q4 -23 -5 -32t-38 -9q-35 0 -43 15.5t-12 80.5q-6 86 -46 110t-179 24q-131 0 -174.5 34.5t-43.5 137.5z" />
<glyph unicode="5" horiz-adv-x="876" d="M22.5 494q8.5 43 49.5 84q51 51 94 49q14 0 14 -13q0 -10 -63 -67q-57 -51 -48 -85t91 -75q80 -41 226 -45t202 33q96 61 102 138t-82 130q-43 27 -73.5 33t-79.5 0q-47 -8 -80 -21.5t-42 -20.5t-19.5 -4t-28.5 25q-31 59 -20 231.5t26 196.5q18 29 18 76q0 29 16.5 43.5 t63.5 28.5q90 29 128 23.5t95 -54.5q68 -59 125 -59q53 0 86 -11.5t33 -31.5q0 -10 -74.5 -11.5t-166 7t-130.5 18.5q-51 16 -88 -32t-49 -146q-14 -117 3.5 -143.5t111.5 -24.5q188 6 272 -129q86 -139 -18 -260q-63 -72 -131 -93.5t-203 -13.5q-86 4 -157.5 24.5 t-119 51.5t-70 68t-14 80z" />
<glyph unicode="6" horiz-adv-x="647" d="M20 342l3 211q2 137 9 184t36 84q43 59 43 76q0 20 70.5 97t117.5 106q55 37 79.5 39t61.5 -27q27 -20 24 -24.5t-44 -4.5q-45 -2 -102.5 -47t-92.5 -90t-35 -55q0 -23 -36 -70q-51 -70 -76 -216t12 -169q20 -12 66 15q102 57 231 55t195 -64q41 -41 45 -98t-35 -72 q-25 -8 -43.5 -22t-32.5 -23.5t-57 -19.5t-115 -14l-145 -11zM180 287q10 -20 147.5 -20.5t182.5 36.5q41 33 30.5 68t-65.5 55q-45 18 -119.5 18t-117.5 -18q-33 -12 -53.5 -62.5t-4.5 -76.5z" />
<glyph unicode="7" horiz-adv-x="851" d="M25 565q-20 33 73 53q53 14 142 21l168 10l22 84q14 53 34.5 85t34 45.5t13.5 29.5q0 27 29 82q31 61 -2 79.5t-181 24.5l-172 6l15 -118q8 -70 5 -98.5t-22 -45.5q-31 -25 -30.5 -52.5t-21 -27.5t-7.5 45q20 63 23.5 143.5t-13.5 96.5q-20 23 -20 66q0 27 11 38t42 17 q63 10 260 -2t217 -29q33 -27 -8 -158t-96 -176q-29 -25 -29 -58.5t-25 -57.5q-27 -27 27 -35q41 -8 166 -12q160 -6 151 -25q-8 -23 -192 -31l-193 -10l-28 -80q-18 -55 -38 -142t-33 -131t-34 -44q-20 0 -25 60.5t5 136t33 110.5q33 55 20 88q-10 27 -49 29t-160 -17 q-104 -14 -112 0z" />
<glyph unicode="8" horiz-adv-x="677" d="M20 385q0 53 39 121.5t93 111.5l71 58l-39 69q-116 208 21 353q43 45 155.5 46t208.5 -42q63 -29 75.5 -47.5t12.5 -80t-16 -85t-96 -78.5q-113 -78 -160 -104q-25 -12 -34 -19.5t-8 -25t10 -37t36 -66.5q43 -78 46 -166t-38 -108q-86 -43 -122.5 -51.5t-92.5 2.5 q-66 12 -114 57t-48 92zM94.5 437.5q-18.5 -58.5 11 -94.5t97.5 -36q98 0 136 62.5t-7 150.5q-41 78 -70 85t-86 -50q-63 -59 -81.5 -117.5zM211 890.5q4 -28.5 27 -79.5q55 -125 90 -70q10 18 96 62q74 39 133 91t59 81q1 25 -67 78q-43 33 -59.5 40t-27.5 0.5t-26 -34.5 q-23 -41 -61 -31q-47 12 -93 -11.5t-63 -66.5q-12 -31 -8 -59.5z" />
<glyph unicode="9" horiz-adv-x="628" d="M25 872q6 70 20 104t55 77q68 70 101.5 69.5t101.5 28.5q55 25 165 25t110 -25q0 -12 -51.5 -17.5t-121 -16.5t-102.5 -36q-49 -39 -76 -39q-31 0 -89 -78.5t-58 -121.5t54 -100.5t93 -57.5q29 0 118 41t108 61q12 16 30.5 86t32.5 129.5t23 59.5q10 0 45 -25 q18 -12 22 -30.5t-2 -58.5t-15 -89t-19.5 -147.5t-10.5 -212.5q-4 -262 -51 -265q-6 0 -14 7q-12 6 -14.5 64t0.5 157.5t1 146.5l-4 92l-98 -49q-104 -49 -155.5 -44t-125.5 75q-61 59 -71.5 84t-1.5 106z" />
<glyph unicode=":" horiz-adv-x="307" d="M20 784q0 52 24 75.5t99 23.5q47 0 66.5 -10.5t34.5 -41.5q16 -35 10 -51t-43 -49q-70 -59 -130.5 -42.5t-60.5 95.5zM62 336.5q1 46.5 34 56.5q53 14 89 0t69 -65q31 -45 33 -63.5t-15 -45.5q-12 -18 -37.5 -31.5t-50.5 -17.5q-39 -2 -55 8t-37 51q-31 61 -30 107.5z " />
<glyph unicode=";" horiz-adv-x="333" d="M27 80q23 63 92 131q23 23 39 52.5t16 47.5q0 50 12 64q33 31 62 -23q33 -61 4 -121q-23 -55 -97.5 -139t-97.5 -84q-55 0 -30 72zM100 889q12 33 81 34t102 -32q51 -51 22 -102.5t-104 -40.5q-47 4 -82 52t-19 89z" />
<glyph unicode="&#x3c;" horiz-adv-x="911" d="M23.5 613.5q13.5 17.5 39 30.5t62.5 31.5t51 37.5q25 29 156 104l200 119q39 23 74 42t50.5 26.5t27.5 16.5t18 19q14 20 54 21q23 0 30 -9.5t5 -33.5q-6 -33 -61.5 -68t-129.5 -72.5t-102 -60.5q-18 -18 -91 -61t-131 -92l-69 -62l59 -43q59 -45 170 -88 q170 -70 309.5 -149.5t143.5 -112.5q10 -57 -37 -53q-37 2 -92 49q-76 61 -105 61q-25 0 -81 40t-66 40q-16 0 -139 57l-238 111q-70 33 -95.5 57.5t-12 42z" />
<glyph unicode="=" horiz-adv-x="1013" d="M22 859q-1 13 5 36q12 31 346 32t358 -30q43 -51 -41 -66q-45 -8 -119 0l-155 15q-29 4 -203 -8q-68 -4 -105.5 -4t-61 6t-24.5 19zM303 668q-47 39 8 55q55 14 264 22q350 14 388 3q23 -10 26 -41q6 -35 -5 -40t-77 5q-53 8 -155.5 4t-187.5 -13.5t-167 -10.5t-94 16z " />
<glyph unicode="&#x3e;" horiz-adv-x="882" d="M23 903q12 18 120.5 18.5t182.5 -44.5q92 -57 346 -162q104 -45 153 -83t35 -65q-10 -16 -90 -58t-219 -114.5t-242 -134.5q-131 -78 -182 -45q-14 8 -14 29q0 33 46 67.5t89 34.5q20 0 42.5 12.5t91.5 53.5t153 84q156 80 149 106q-4 23 -257 131.5t-302 108.5 q-25 2 -51.5 12t-41.5 24.5t-9 24.5z" />
<glyph unicode="?" horiz-adv-x="567" d="M20 1030q0 33 48.5 87.5t91.5 70.5q35 12 117.5 -3.5t142.5 -43.5q127 -66 127 -221q0 -55 -18.5 -85t-98.5 -100l-119 -104l56 -74q72 -92 26 -100q-39 -6 -96 47q-29 27 -39 55q-29 74 -11.5 117t101.5 108q80 59 95.5 84t11.5 82q-4 49 -16.5 69.5t-49.5 39.5l-94 45 q-51 25 -90 11.5t-88 -73.5q-94 -115 -97 -12zM268 162q-43 43 23 65q24 11 69 19q86 16 117 12t37 -35q6 -27 -20.5 -38t-62.5 -19t-44 -23q-12 -20 -52 -14t-67 33z" />
<glyph unicode="@" horiz-adv-x="993" d="M20 374q0 46 31 148q59 209 166 346.5t252 188.5q80 31 171 0t164 -99.5t121 -170t48 -205.5q0 -96 -27.5 -150.5t-105.5 -105.5q-90 -61 -172 -61.5t-140 59.5q-33 33 -50 41t-29.5 4t-50.5 -13.5t-89 -9.5q-152 0 -151 143q0 53 -17 54q-18 -2 -30 -62 q-43 -209 74.5 -347t334.5 -134q76 2 76 -14q0 -25 -88 -30t-176 13q-219 49 -285 267q-27 92 -27 138zM158 629q0 -33 24 -23q20 6 35 37q25 45 93.5 91t129.5 59q51 8 74 -0.5t61 -53.5q53 -57 57.5 -110.5t-36.5 -132.5q-31 -59 -31 -73.5t29 -43.5q27 -27 45 -29t70 12 q76 23 135 72q43 33 51 59.5t8 116.5q-2 117 -42 193t-130 133q-86 55 -150.5 59t-158.5 -41q-63 -31 -99 -64.5t-85 -109.5q-80 -127 -80 -151zM242 481q4 -29 19 -38t58 -13q55 -4 116 30.5t61 69.5q0 18 29.5 80t9.5 86q-18 20 -36 22.5t-79 -9.5q-47 -8 -115.5 -96.5 t-62.5 -131.5z" />
<glyph unicode="A" horiz-adv-x="831" d="M25 295q-5 20 -5 40q0 36 17 71q6 12 14 18q12 10 20.5 34.5t8.5 47.5q0 35 16.5 59.5t27.5 41t5 42.5q-2 5 -2 12q-1 33 51 85q62 64 62 90q2 31 30.5 76.5t28.5 64.5q0 26 29 96q27 65 60 64q19 0 40 -21q43 -43 117 -194q53 -113 53 -128.5t33 -54.5q35 -37 56.5 -141 t43 -207.5t51.5 -138.5q28 -30 28 -63v-6q-3 -36 -38 -36q-90 0 -108 164q-6 61 -15.5 93t-15.5 36t-11.5 15.5t-5.5 38.5q0 51 -36.5 69.5t-161.5 26.5q-68 0 -109 2h-14q-33 0 -55 -8q-28 -10 -40 -17.5t-21 -27t-13 -37t-16.5 -45t-30.5 -51.5q-20 -31 -32.5 -64 t-19 -49.5t-20.5 -20.5q-16 -6 -22 23zM307 733q7 -18 31 -23q14 -3 38 -3q20 0 48 2q33 2 50.5 4t30.5 9q13 6 16 16q1 4 1 9q0 8 -3 21q-5 20 -14.5 44t-27.5 65q-39 84 -57 94q-1 1 -3 1q-7 0 -19 -14q-16 -20 -33 -53t-31.5 -66.5t-22.5 -63.5q-5 -20 -5 -32q0 -6 1 -10 z" />
<glyph unicode="B" horiz-adv-x="585" d="M20 268q2 64 46 316q26 157 26 245v10q-2 89 -31 162q-22 55 -22 86q-1 18 7 28q20 26 130 32q125 6 160 10q5 1 11 1q44 0 118 -39q84 -44 96 -79q4 -13 4 -24q0 -14 -6 -24q-10 -19 -49 -54q-68 -55 -100 -55q-49 0 -49 -31q0 -29 42 -74q123 -135 150 -227 q8 -28 8 -55q1 -62 -43 -118q-62 -81 -235 -175q-51 -29 -120 -34q-13 -1 -25 -1q-52 0 -87 18q-31 17 -31 73v9zM125 375q0 -10 -1 -19q0 -38 8 -48q9 -12 54 -17q6 -1 12 -1q68 0 166 77q108 84 107 145q0 116 -129 229q-53 47 -97 59q-13 4 -24 4q-25 0 -39 -20 q-10 -18 -32.5 -175.5t-24.5 -233.5zM170 950q14 -33 30 -40q7 -3 16 -3q12 1 28 5q28 8 100 44q106 51 107 76q0 13 -25 19q-73 21 -131 21h-21q-66 -4 -96 -39q-18 -20 -17 -44q-1 -18 9 -39z" />
<glyph unicode="C" horiz-adv-x="733" d="M20 688q0 96 58.5 193.5t138.5 138.5l131 67q62 33 120 34q51 0 99 -27q48 -28 48 -54q0 -3 -1 -6q-5 -18 -34 -18q-20 0 -52 8q-33 9 -66 9q-121 0 -245 -118q-55 -51 -75.5 -86.5t-28.5 -89.5q-7 -45 -7 -82t7 -67q14 -59 53 -112.5t70 -53.5q33 0 73 -31 q25 -18 63 -18q14 1 30 3q58 10 173 60q77 33 111 33q24 0 27 -16q2 -20 -41 -64q-70 -71 -170 -93q-42 -9 -86 -9q-60 0 -121 18q-61 16 -147.5 98t-86.5 123q-2 20 -8 30.5t-13 16t-13.5 34t-6.5 79.5z" />
<glyph unicode="D" horiz-adv-x="782" d="M29 206q-10 13 -10 34q0 42 38 116q41 78 41 128.5t27 129.5q27 74 30 170v21q0 82 -22 127q-14 33 -12 48t22 40q33 37 33 65.5t25 51.5q25 28 76 28q17 1 37 -3q80 -12 165.5 -43.5t150 -82.5t64.5 -96q0 -33 27 -55q27 -23 38 -116q4 -35 4 -63q0 -45 -11 -71 q-51 -113 -165 -201t-261 -127q-98 -27 -172 -76q-60 -39 -94 -39q-20 0 -31 14zM162 354q2 -2 6 -2q10 0 36 10q36 14 93 38t100 32q70 12 183 115q82 74 98 101.5t16 99.5q0 66 -15 106.5t-39 73.5t-32 59q-4 14 -21.5 24.5t-37.5 10.5q-45 0 -84 29q-38 29 -103 29h-10 q-72 -2 -104 -36q-20 -26 -24 -58q-2 -12 -2 -30q0 -34 5 -90q5 -48 4 -89q0 -31 -2 -59q-6 -64 -32 -171q-37 -147 -37 -183q0 -8 2 -10z" />
<glyph unicode="E" horiz-adv-x="786" d="M20 504q2 123 24 211t46.5 161.5t28.5 151.5q6 103 8 109q1 3 59 3q78 0 254 -5q310 -10 318 -18.5t8 -15.5q0 -16 -46 -26q-65 -14 -243 -22q-260 -14 -284.5 -35t-24.5 -127q0 -70 8 -91.5t37 -33.5q52 -18 133 -19q8 0 16 1q92 2 168 26q60 20 93 20q42 0 43 -32 q0 -10 -24 -22.5t-65.5 -29t-60.5 -26.5q-43 -22 -117 -22q-66 0 -157 18q-39 8 -60.5 7t-38 -8t-22.5 -35t-9 -63.5t-3 -103.5v-149l73 -23q38 -12 92 -12t123 12q152 24 204 24q19 0 24 -3q10 -6 10 -29q0 -49 -68.5 -69.5t-226.5 -20.5q-145 0 -178 8t-80 55 q-47 45 -54.5 76t-7.5 158z" />
<glyph unicode="F" horiz-adv-x="944" d="M23 293q-2 8 -2 19q0 25 12 63q18 55 23 301q1 59 1 107q0 155 -12 204q-3 10 -3 20q0 47 66 77q79 36 265 51q59 6 123.5 11t107.5 9t87 8t73 6q28 1 56 3q14 1 25 1q11 -1 19 -1q16 -2 29.5 -4.5t20 -7.5t8.5 -13q1 -3 1 -7q-1 -14 -21 -26q-26 -16 -78 -24.5 t-119 -8.5q-94 0 -212 -23.5t-210 -33.5l-140 -12l-10 -330q-6 -219 -14 -282.5t-33 -92.5q-29 -32 -46 -32q-12 0 -17 18zM206 704q8 20 40 19q20 0 95 29.5t130 35.5q98 12 154 12q65 0 73 -16q4 -4 4 -9q0 -7 -11 -17q-17 -14 -53 -24.5t-75 -10.5q-45 0 -103.5 -15.5 t-98 -29.5t-82.5 -22q-14 -3 -25 -3q-22 0 -31 11q-19 15 -19 30q0 6 2 10z" />
<glyph unicode="G" horiz-adv-x="870" d="M20 455l11 194q8 143 20 180t68 99q122 135 276 186q78 25 125 27q33 0 78 -36t45 -63q0 -18 -11 -18t-63 18q-26 10 -60 10q-38 0 -85 -12q-88 -25 -147.5 -68.5t-112.5 -125.5q-39 -57 -48.5 -97t-9.5 -137q0 -96 10.5 -136t49.5 -99q27 -37 50.5 -63.5t33.5 -26.5 q20 0 53 -29q37 -33 90 -41q12 -2 22 -2q33 0 40 21q4 10 33.5 22t66.5 18q92 14 143 58q40 36 40 78q0 11 -3 22q-25 92 -109 132q-40 19 -79 19q-44 0 -86 -24q-27 -12 -33 -10t0 27q6 31 57.5 59.5t114.5 42.5q53 12 103 12q11 0 22 -1q61 -3 86 -29q20 -18 27.5 -74 t9.5 -195q1 -46 1 -83q0 -130 -11 -144q-8 -8 -27 -8q-39 0 -45 43q-6 41 -18 42v0q-13 0 -70 -34q-63 -37 -202 -49q-47 -5 -86 -5q-78 0 -126 17q-68 25 -155 154z" />
<glyph unicode="H" horiz-adv-x="833" d="M51 543q-30 24 -30 40q0 17 34 25q29 8 41.5 67.5t26.5 266.5q2 43 11 56.5t34 13.5q29 0 34 -24q2 -9 2 -28q0 -30 -5 -86q-6 -119 -9 -210l-2 -70l177 6q176 4 198 23q16 14 27.5 204.5t27.5 208.5q13 16 22 16q12 0 17 -30q8 -41 9 -186q0 -178 14 -195q6 -6 27 -6 q33 0 69.5 -25.5t36.5 -48.5q0 -11 -24 -11q-15 0 -43 5q-15 3 -28 3q-46 0 -64 -34q-18 -32 -17 -106q0 -25 2 -56q2 -29 2 -52q0 -100 -39 -99h-6q-14 2 -33 16q-18 16 -22 44q-2 11 -2 29q0 26 4 67q10 113 24 147q10 29 -8 29h-6q-19 0 -72 -8q-104 -14 -190 -23 q-115 -12 -123 -27q-6 -8 -14 -137q-8 -131 -45 -131q-10 2 -25 12q-22 20 -22 77v16q4 70 12 128q2 12 2 22q0 42 -25 71z" />
<glyph unicode="I" horiz-adv-x="753" d="M20 303q-2 12 56 23q41 8 49 24q8 20 12 232q2 113 8 221l9 229l-56 6q-51 6 -51 36q0 34 57 48q36 9 146 9q63 0 150 -3q239 -8 286 -26q49 -19 49 -31q0 -16 -84 -20q-28 -1 -66 -1t-85 1h-13q-51 2 -73.5 3t-56 -2t-46 -3t-33 -13.5t-24.5 -19.5t-15.5 -34t-11.5 -44 t-3 -62.5t-3 -75v-98.5v-16q0 -281 12.5 -300t155.5 -19q115 1 159 -21q31 -15 31 -43q0 -12 -6 -27q-2 -10 -7 -14t-17 -6q-8 -1 -17 -1h-10q-14 1 -42.5 4t-61.5 6t-87.5 6t-115.5 3q-188 2 -195 29z" />
<glyph unicode="J" horiz-adv-x="1017" d="M20 559q0 53 21 53h2q25 -2 55 -71q43 -94 158 -181q93 -71 145 -71q13 0 23 4q31 12 82 115q45 86 66 236q12 90 12 170q0 54 -6 104l-11 94l-164 2q-200 0 -200 48q0 9 6 19t33 13q18 3 44 3q15 0 32 -1q49 -2 95 -6.5t113.5 -10.5t110.5 -8q315 -20 358 -51q3 -2 3 -4 q0 -10 -64 -12q-43 0 -113 2l-172 6l-6 -244q-4 -244 -35 -305q-18 -39 -25.5 -71t-18.5 -57.5t-48 -68.5q-55 -66 -122 -71h-10q-60 0 -108 51q-47 51 -86 80q-55 39 -112.5 118.5t-57.5 114.5z" />
<glyph unicode="K" horiz-adv-x="888" d="M22 394q-1 24 -2 64q0 80 5 224q8 319 15 416.5t21 122.5q7 13 17 13h2q10 -1 26 -20q20 -18 22 -59q0 -7 1 -17q0 -45 -10 -145q-12 -134 -12 -178q0 -20 2 -22h1q8 0 74 43q72 47 156 97t113 50q12 0 135 79t133 79q14 0 49 33q23 22 50 22q6 0 14 -2q34 -6 34 -37 q0 -27 -134 -103.5t-272 -151.5t-145 -93q-2 -6 -2 -13q0 -25 29 -65q37 -51 150 -166q224 -231 224 -290q0 -9 -5 -13q-4 -4 -11 -4q-20 0 -64 42q-58 56 -247 269q-150 170 -172 172h-2q-22 0 -63 -45q-29 -31 -36 -68.5t-9 -150.5q0 -186 -35 -186q-12 0 -31 16 q-17 14 -21 87z" />
<glyph unicode="L" horiz-adv-x="808" d="M22 161q6 60 54 224q51 174 124.5 333t106.5 283q33 130 41 146q10 14 47 14t47 -16q3 -5 3 -16q1 -27 -17 -93q-24 -92 -57 -149q-35 -66 -35 -96.5t-29 -83.5q-83 -162 -107 -278q-8 -41 -9 -73q0 -58 28 -86q24 -22 94 -22h30q95 6 169 39q91 42 133 42q29 0 35 -20 q6 -18 -16 -55q-25 -37 -18 -44q4 -4 31 -4q15 0 38 1q7 1 14 1q44 0 57 -24q2 -4 2 -7q0 -9 -12 -17q-10 -6 -217 -44t-258 -61q-63 -28 -130 -28q-7 1 -15 1q-76 4 -109 38q-26 30 -26 77q0 9 1 18z" />
<glyph unicode="M" horiz-adv-x="1144" d="M20 203v9q0 20 7 48q10 51 52 161.5t58 135.5q29 39 67 178t44 228q8 128 16 153q6 18 20 22q3 1 5 0q11 0 25 -10q16 -14 32 -43q33 -53 70 -106q33 -49 74.5 -171t41.5 -171t27 -72q18 -12 37.5 0.5t62.5 65.5q45 55 77 112.5t47.5 90t27.5 38.5q18 12 18 50 q0 30 38 70q22 24 44 23q15 0 29 -11q29 -25 29 -64q0 -25 28.5 -95.5t38.5 -150.5q14 -100 54 -213q34 -92 34 -173v-7q-2 -84 -34 -84q-25 0 -60 146.5t-64.5 303t-41.5 169.5q-10 8 -24.5 0.5t-31 -31t-32.5 -60.5q-35 -84 -103.5 -180t-109.5 -119q-25 -13 -45 -13 q-18 0 -31 10q-29 22 -53 108q-37 123 -111 291q-44 102 -60 102q-10 0 -10 -35q-2 -61 -49 -223t-98 -268q-72 -156 -72 -181.5t-26 -48.5q-16 -13 -27 -13q-16 0 -21 28z" />
<glyph unicode="N" horiz-adv-x="878" d="M20 395v8q0 71 31 390q13 135 13 175q0 14 -1 17q-3 4 -3 12q0 21 21 65q28 60 44 60q23 0 35 -29.5t0 -58.5q-6 -16 14.5 -60t54 -102.5t41.5 -78.5q31 -68 209 -247t215 -179q6 0 11.5 4t10.5 15t10 24.5t15.5 40t22.5 51.5q26 60 26 286v49q-1 54 -1 97q0 174 10 186 q10 16 18 16q16 0 25 -59q10 -68 14 -225q2 -63 1 -113q0 -75 -3 -121q-6 -76 -29 -163q-33 -121 -55 -155t-72 -34q-45 0 -227 184.5t-240 284.5q-20 37 -40.5 64.5t-28.5 25.5q-27 -2 -41.5 -115.5t-19.5 -262t-7 -158.5q0 -8 -41 28q-31 27 -33 78z" />
<glyph unicode="O" horiz-adv-x="956" d="M31 625q-10 56 -10 105q1 60 15 108q28 90 105 159q81 69 99 69q5 0 5 -6q0 -2 -1 -5q-6 -25 -68 -105q-74 -98 -86 -222q-2 -22 -2 -42q0 -98 47 -172q35 -53 160 -100t231 -47q68 0 178.5 33.5t149.5 66.5q27 23 27 77v7q-2 59 -33 135q-31 82 -162 188 q-88 74 -124 91.5t-99 17.5q-94 0 -119 29q-16 23 8 24q4 0 12 1q21 0 66 -5q102 -10 178 -40.5t146 -92.5q154 -133 176 -305q6 -45 6 -80q0 -32 -5 -57q-11 -51 -58.5 -83t-125 -44.5t-212.5 -12.5q-170 0 -218.5 8.5t-113.5 47.5q-94 55 -124 98t-48 154z" />
<glyph unicode="P" horiz-adv-x="616" d="M26 497q-5 112 -5 193q0 107 8 164q23 160 37 202t63 89q57 53 105.5 53t121.5 -53q193 -141 236 -338q3 -16 3 -30q1 -21 -7 -37q-12 -26 -68 -87l-84 -92l-121 8q-39 4 -72.5 8.5t-54 8.5t-38 7t-24.5 5t-14.5 0t-11.5 -7t-8 -16q-6 -16 -5 -47q-1 -45 11 -122 q20 -130 41 -130q31 0 38 -18t-11 -41q-20 -27 -58 -30h-8q-31 0 -43 20q-19 33 -31 290zM104 836q-1 -33 -1 -59q0 -70 10 -87q10 -18 90 -43q49 -16 79.5 -16t84.5 18q146 46 146 156q0 105 -134 229q-95 83 -153 83h-6q-60 -5 -93 -105q-17 -53 -23 -176z" />
<glyph unicode="Q" horiz-adv-x="974" d="M20 584q0 123 101 294t205 228q63 35 75 35q18 0 47 -49.5t29 -79.5q0 -27 -4 -29q-4 0 -31 35l-34 43l-80 -57q-94 -70 -147.5 -159t-80.5 -229q-6 -29 -6 -59q0 -93 59 -189q78 -126 199 -161q44 -13 102 -13q20 0 40 1q84 6 84 28q0 8 -109 133t-109 144q-2 39 29 24 q35 -16 129 -110q51 -53 97.5 -90t58.5 -37q31 0 76 43q48 43 48 112q0 33 -11 72q-33 121 -154 244q-57 59 -87 72.5t-102 13.5q-104 0 -104 22q0 10 22 33q22 24 60 24q15 0 32 -3q60 -13 124.5 -48.5t126 -98t92.5 -128.5q23 -51 41 -84q13 -40 13 -95v-22 q-3 -69 -25.5 -133.5t-49.5 -64.5q-8 0 -14 -8.5t-6 -20.5q0 -31 18 -31t99 -54t81 -66q0 -14 -26 -37q-14 -11 -34 -11q-15 0 -35 7q-44 16 -44 45q0 12 -13.5 20t-41 21.5t-49 32t-47.5 19.5h-3q-27 0 -90 -13q-61 -14 -120 -14q-65 0 -129 16q-121 32 -187 112 q-43 49 -79 151.5t-36 168.5z" />
<glyph unicode="R" horiz-adv-x="915" d="M20 948q0 25 55.5 77t114.5 83q53 29 86 31h6q33 0 97 -19q59 -16 152.5 -86.5t119.5 -118.5q23 -41 23 -87q0 -44 -21 -91q-43 -98 -137 -131q-47 -16 -47 -38.5t47 -22.5q23 0 77 -31t118 -47q72 -18 128 -77.5t56 -115.5q0 -43 -14 -45q-20 0 -93 86q-74 90 -129 91 q-45 0 -93 28.5t-72 30.5q-25 0 -107 50t-100 50q-10 0 -30.5 17.5t-39.5 44.5q-28 40 -28 63q-1 8 3 14q7 11 27 12q18 0 47 -11q57 -21 124 -21q17 0 35 1q87 7 126 42q47 43 47 95q0 21 -8 44q-27 78 -131 133q-79 39 -147 40h-3q-66 0 -100 -38q-39 -41 -66.5 -201.5 t-29.5 -361.5q-4 -240 -27 -245q-6 -2 -12 -2q-20 -1 -31 27q-14 36 -15 108v28q0 58 3 120q4 78 9 176q4 70 4 121q0 20 -1 38q0 27 6 38t15.5 10t18.5 6t11 24q8 35 -33 35q-16 0 -28.5 8t-12.5 18z" />
<glyph unicode="S" horiz-adv-x="675" d="M20 468v8q0 37 41 44q20 4 28.5 -5t8.5 -38q0 -18 4 -31.5t19.5 -26.5t30 -22.5t51.5 -31t63 -39.5q74 -48 123 -64q39 -13 85 -13q11 0 22 1q76 6 73 41q-2 45 -188 229q-82 80 -152.5 158t-87.5 106q-40 70 -40 124q1 25 9 48q28 70 148 125q77 36 163 36q13 0 25 -1 q72 -4 85.5 -12t13.5 -51q0 -53 -36 -67q-9 -4 -18 -4q-25 0 -47 30q-18 27 -37.5 25.5t-93.5 -29.5q-104 -39 -123 -70q-7 -11 -7 -27q-1 -38 37 -104q54 -94 142 -172q170 -150 231.5 -228.5t61.5 -148.5q0 -90 -119.5 -90t-206.5 41t-255 176q-50 39 -54 83z" />
<glyph unicode="T" horiz-adv-x="1069" d="M20 1006q4 29 25 41t82 22q90 14 150 14h14q37 0 77 9.5t64 18.5q21 8 39 8h3q20 -1 32 -17q8 -16 179 -16q43 0 95 1q51 1 92 1q143 0 160 -11q12 -6 17 -30q1 -5 1 -9q0 -23 -18 -28q-23 -8 -184 -11q-50 -1 -105 -1t-114 1q-31 1 -53 1q-32 0 -44 -2q-20 -3 -26 -19 q-8 -27 -23 -338q-14 -365 -61 -375h-3q-11 0 -26 15q-10 9 -12 37q-1 9 -1 21q0 23 3 54q4 47 11 102.5t14.5 143.5t11.5 174l6 178l-160 -6q-160 -6 -172 -27q-12 -16 -30 -14t-32 20q-12 16 -12 36v6z" />
<glyph unicode="U" horiz-adv-x="911" d="M20 727q-1 34 -1 63q0 161 28 189q22 22 36 22h1q20 0 27.5 -19t-9.5 -30q-20 -12 -20 -215q0 -487 276 -542q28 -5 55 -6q71 0 129 39q80 53 191 216q53 80 63 117q8 31 7 114v38q-4 156 -37 192q-21 23 -21 51q1 4 1 10q4 34 30 35q45 0 82 -190l33 -168q1 -8 1 -17 q0 -92 -149 -309q-82 -115 -113.5 -141t-119.5 -49q-54 -13 -104 -13q-94 0 -172 46q-118 70 -171 237q-37 111 -43 330z" />
<glyph unicode="V" horiz-adv-x="962" d="M23 938q4 10 8 14t14 0t22.5 -16t36.5 -39q68 -74 68 -113q0 -27 30.5 -60.5t41.5 -84.5q10 -47 50 -145.5t56 -161.5q10 -35 23.5 -60.5t23.5 -25.5q33 2 143.5 152.5t209 322.5t98.5 221q0 39 35 68q15 12 26 12q20 0 31 -33q1 -3 1 -8q0 -41 -90 -227 q-101 -208 -175 -312q-66 -92 -66 -106t-71 -100q-41 -51 -69 -70t-62 -19q-39 0 -57.5 17.5t-49.5 87.5q-39 82 -50 143.5t-38 118.5q-25 51 -32 86t-23.5 70t-67.5 112q-69 104 -69 145q0 6 2 11z" />
<glyph unicode="W" horiz-adv-x="1363" d="M29 944q6 4 14 4q21 0 49 -30q35 -37 119 -199t84 -191q0 -20 51 -135q37 -84 48.5 -94t41.5 18q53 47 104.5 132.5t61.5 140.5q14 72 33 84q29 18 53.5 -17.5t24.5 -91.5q0 -164 67 -250q31 -39 45.5 -43t51.5 17q49 27 141 129t92 131t23 49q16 16 66 198.5t50 225.5 q0 31 24.5 55.5t41.5 24.5q21 0 27 -34q2 -9 1 -18q0 -22 -12 -36q-16 -18 -60 -208t-59 -208q-18 -23 -32 -74q-14 -43 -96.5 -152.5t-149.5 -172.5q-46 -43 -60 -46h-3q-15 0 -52 23q-59 39 -97 86t-49 82t-20.5 58.5t-19.5 23.5t-23.5 -21.5t-47.5 -69.5t-85 -97 q-57 -57 -73.5 -63.5t-45.5 20.5q-23 20 -37 53t-37.5 106.5t-47.5 130.5l-66 170q-16 43 -40 83t-38 63.5t-14 34.5q0 14 -35 51q-24 26 -24 42q0 10 10 15z" />
<glyph unicode="X" horiz-adv-x="851" d="M20 266.5q0 34.5 29 59.5q31 25 31 47q0 16 117.5 121.5t119.5 123.5q0 14 -74.5 81t-148.5 134.5t-71 86.5q7 32 73 34q3 0 6 1q60 0 72 -31q16 -45 79.5 -117t100.5 -86q31 -10 59.5 6t106.5 96q49 49 95.5 84t61.5 35t31.5 12.5t26.5 28.5q18 33 49 37h7q26 0 36 -27 q5 -12 5 -27q0 -38 -34 -90q-48 -72 -141 -133q-94 -63 -109.5 -84.5t13.5 -50.5q14 -16 11 -29.5t-15 -21.5t-6 -23.5t39 -37.5q66 -43 116 -105.5t50 -97.5q0 -51 -21 -51q-27 0 -88 84q-57 78 -126.5 138t-101.5 60t-96.5 -56t-144.5 -155q-61 -76 -88 -96 q-17 -13 -29 -13q-8 0 -14 5q-27 23 -27 57.5z" />
<glyph unicode="Y" horiz-adv-x="749" d="M20 1104q0 37 15 37q14 0 50 -34t36 -48q0 -10 69.5 -117.5t79.5 -146.5t33 -63.5t45 -78.5q29 -70 47.5 -70t57.5 76q158 309 182 369q16 41 45 51.5t47 -20.5q3 -5 3 -14q0 -23 -22 -70q-30 -66 -61 -92q-31 -25 -31 -52q0 -20 -30.5 -83.5t-72.5 -140.5t-52 -101 q-154 -289 -191 -404q-10 -33 -51 -34q-2 -1 -4 -1q-37 0 -47 31q-8 2 -3 21.5t10 33t19.5 42t26.5 51t32.5 61.5t37.5 74l51 104l-41 70q-41 72 -41 102q0 23 -40 81.5t-40 84.5q0 29 -29.5 59.5t-29.5 44t-50.5 80t-50.5 97.5z" />
<glyph unicode="Z" horiz-adv-x="1193" d="M23 205q0 39 120 125l406 282q100 66 178 136l78 69l-197 12q-76 5 -130 5q-34 0 -60 -2q-66 -5 -96.5 -13t-46 -6t-35.5 21q-32 29 -114 29q-1 -1 -3 -1h-2q-82 0 -98 39q-3 6 -3 11q0 17 25 32q15 10 72 11q32 0 79 -4q128 -9 201 -33q44 -12 139 -12q48 0 108 3 q181 9 239 35q35 15 50 15h2q15 -1 36 -21q21 -24 21 -44t-15 -71q-25 -72 -143.5 -188.5t-217.5 -161.5q-76 -37 -76 -57q0 -10 19 -17q41 -14 193 -14q367 -4 399 -16q16 -6 20 -35q1 -7 1 -14q0 -36 -28 -56q-17 -13 -36 -12q-17 0 -35 10q-57 35 -207 38h-25 q-137 0 -261 -30q-88 -20 -177.5 -37.5t-140.5 -30t-98 -26.5q-59 -21 -92 -21q-8 -1 -16 1q-32 8 -33 49z" />
<glyph unicode="[" horiz-adv-x="677" d="M27 180q-16 68 8 156q16 66 36.5 220.5t39.5 231.5q37 147 -11 365q-12 57 13 77t127 34q100 12 258 10q96 -2 127.5 -8t31.5 -25q0 -18 -35.5 -26.5t-134.5 -16.5q-72 -4 -106.5 -7t-69.5 -16.5t-47 -25.5t-24.5 -47t-15.5 -69t-7 -103q-6 -158 -25.5 -217.5 t-29.5 -177.5q-2 -18 -6 -52q-16 -172 -2 -192q8 -14 57 -15h18q59 0 110.5 11.5t76 20.5t47 9t43.5 -20q33 -31 10 -66q-20 -35 -222 -58t-224 -34q-31 -14 -43 41z" />
<glyph unicode="\" horiz-adv-x="706" d="M27 1001q-14 72 0 86q18 18 47 -10q27 -29 145 -184q100 -131 227 -279.5t184.5 -220t55.5 -96.5q-6 -45 -55 -41t-78 51q-88 150 -241.5 337t-250.5 269q-20 16 -34 88z" />
<glyph unicode="]" horiz-adv-x="489" d="M20 1139q12 61 295 55l150 -2l2 -150q0 -96 -8 -170.5t-11.5 -124t9.5 -249.5q23 -256 -1 -278.5t-206 -22.5q-127 0 -154.5 6t-27.5 35q0 25 21.5 33t109.5 12q133 6 151 28q10 16 6 131t-9 242t11 244q6 47 10.5 67.5t3.5 48t-1 37t-12.5 21.5t-21.5 14t-37 4t-48.5 1 t-67.5 -5q-59 -4 -90 -5t-49 2t-22.5 8.5t-2.5 17.5z" />
<glyph unicode="a" horiz-adv-x="727" d="M30 313q-8 20 -9 46q0 28 10 63q20 80 84.5 171t109.5 107q54 21 78 21h4q23 -2 23 -27q0 -12 -8.5 -21t-18.5 -9q-33 0 -113 -93q-103 -118 -103 -194q0 -16 5 -31q16 -59 127 -59q88 0 124 33.5t56 136.5q23 114 52 114q27 0 59 -94q35 -100 116 -169.5t81 -94.5 q0 -26 -22 -26q-17 0 -48 16q-33 18 -72 53q-61 55 -97 55h-2q-36 -2 -110 -67q-50 -46 -120 -52q-9 -1 -17 -1q-59 0 -106 34q-65 47 -83 88z" />
<glyph unicode="b" horiz-adv-x="503" d="M24 1098q10 62 25 61h2q29 -8 32 -149.5t14.5 -264t23.5 -143.5q8 -12 34.5 -12t65.5 5q15 2 32 2q28 0 62 -5q77 -14 127 -90q43 -66 44 -143q0 -12 -2 -24q-8 -91 -70 -142q-58 -45 -114 -45q-10 0 -20 1q-66 9 -149 89l-94 88l-12 354q-6 180 -6 285q0 101 5 133z M113 342q8 -38 77 -74q60 -33 80 -32h1q20 0 65 26q56 33 68 86q3 13 3 27q0 39 -28 81q-35 53 -104 53h-7q-74 -3 -118 -63q-38 -56 -38 -92q0 -6 1 -12z" />
<glyph unicode="c" horiz-adv-x="614" d="M22 444q-2 14 -2 28q0 42 14 85q18 57 65.5 113.5t115.5 93.5q68 34 132 34h11q68 -3 68 -44q0 -27 -12.5 -32t-63.5 -1q-9 1 -18 1q-50 0 -92 -29q-50 -34 -103 -122q-32 -52 -33 -97q0 -52 45 -94q68 -64 195 -64q26 0 55 3q104 8 131 31q32 26 54 0q11 -13 11 -28 q0 -14 -11 -31q-34 -51 -140 -61q-23 -2 -46 -2q-84 0 -174 27q-114 34 -165 95q-31 38 -37 94z" />
<glyph unicode="d" horiz-adv-x="784" d="M27 399q25 133 98.5 225.5t171.5 108.5q43 8 61.5 3t7 -22.5t-50.5 -37.5q-76 -43 -120.5 -95.5t-71.5 -129.5l-37 -105l57 -59q57 -59 105 -60q61 0 127.5 49.5t97.5 116.5q23 49 32 109q6 38 6 69q0 17 -2 32q-5 42 -26 42q-27 0 -39 27q-14 33 27 33q27 0 33 28 q6 33 6 197q0 225 14 239q11 10 19 10q22 0 35 -63q6 -35 24 -307q14 -213 49 -236q18 -10 18.5 -68.5t18.5 -68.5q16 -10 31.5 -50t26 -91t15.5 -101q3 -28 3 -50q0 -18 -2 -32q-4 -34 -19 -34q-16 0 -43.5 80t-27.5 127q-2 39 -42 109.5t-61 70.5q-18 0 -18 -35 q0 -45 -44 -126t-87 -116q-53 -41 -148 -41q-63 0 -91.5 14.5t-84.5 74.5q-56 62 -68 88q-6 14 -6 32q0 19 5 43z" />
<glyph unicode="e" horiz-adv-x="634" d="M20 555q0 37 39.5 89t90.5 83q55 33 110 33q57 0 113 -35q65 -43 65 -83q0 -8 -2 -16q-16 -48 -78.5 -83t-128.5 -41q-80 -6 -80 -34q0 -25 62 -73q47 -35 91 -47t155 -20q164 -10 157 -31q-4 -20 -186 -21q-117 0 -159 8.5t-85 39.5q-55 37 -109.5 114.5t-54.5 116.5z M190 584q66 0 134 47q23 17 23 27q0 4 -3 6q-31 30 -70 30h-4q-41 -2 -80 -32q-49 -39 -49 -58.5t49 -19.5z" />
<glyph unicode="f" horiz-adv-x="727" d="M27 485q11 19 72 19q19 0 44 -2l103 -6l-8 231q-2 69 -2 120q0 118 10 134q11 21 50 21q16 0 36 -4q69 -11 166 -56q209 -99 209 -142q0 -9 -7 -16q-23 -14 -43 -0.5t-53 37t-51 23.5q-25 0 -111 43q-63 32 -95 32q-15 0 -23 -7q-27 -21 -27 -142q2 -135 14 -195l15 -61 l166 8q51 2 81.5 2t49 -2t23.5 -7t1 -13q-6 -20 -155.5 -50t-161.5 -44q-14 -14 -22.5 -81t-20 -123.5t-31.5 -56.5q-10 0 -10 44q0 27 4 71q4 35 4 61q0 47 -12 63q-19 24 -109 30q-66 4 -95 22q-17 12 -17 27q0 10 6 20z" />
<glyph unicode="g" horiz-adv-x="661" d="M20 23q0 69 33 81q16 4 20.5 -3t-1.5 -29q-4 -16 -4 -34q0 -44 26 -98q35 -75 101 -126q55 -41 89.5 -52.5t110.5 -11.5q74 0 103.5 8.5t60.5 38.5q27 27 38 53q8 19 8 44q0 12 -2 25q-5 42 -15 79t-34 121t-40 157q-23 102 -46 117q-6 4 -16 4q-26 0 -77 -28 q-55 -31 -79 -35q-5 -1 -10 -1q-22 0 -53 13q-59 25 -98 77t-39 103q0 55 51.5 136t102.5 110q49 27 62.5 27t64.5 -27q55 -29 55 -51q0 -16 -45 -6q-14 3 -29 3q-32 0 -68 -14q-54 -20 -54 -49q0 -18 -30 -51t-30 -72q0 -35 35 -80.5t63 -45.5q25 0 103 73.5t78 98.5 q0 12 9 18t25 4q25 -4 35.5 -55t19.5 -125t27 -111q29 -51 48.5 -161.5t21.5 -223.5q0 -90 -8 -120.5t-49 -73.5q-57 -60 -146 -60q-66 0 -149 33q-90 35 -142.5 78t-89.5 110q-37 63 -37 132z" />
<glyph unicode="h" horiz-adv-x="669" d="M25 1090q12 33 24 33q7 0 14 -9q13 -18 13 -67q0 -59 30.5 -164t30.5 -168q-1 -85 11 -97q2 -3 8 -2q19 0 75 39q79 53 149 53q42 0 80 -18q104 -49 124 -205q8 -66 25.5 -107.5t29.5 -51.5q11 -10 11 -20q0 -12 -23 -36q-18 -18 -33 -18q-22 0 -37 37q-14 37 -33 123 q-29 137 -52 175t-83 38q-53 0 -113.5 -52.5t-111.5 -142.5q-16 -29 -35.5 -46t-32.5 -13q-23 4 -32 109.5t-16 262t-19 234.5q-9 47 -9 77q0 23 5 36z" />
<glyph unicode="i" horiz-adv-x="370" d="M21 804q0 29 59 42q65 12 94 13q4 0 8 -1q28 -2 27 -22q0 -34 -36 -54q-28 -15 -64 -15q-11 0 -23 1q-65 4 -65 36zM39 406q0 112 27 145q24 28 37 28q11 0 14 -18q2 -11 2 -29q0 -28 -4 -73q-3 -32 -3 -57q0 -70 20 -94q14 -17 45 -16q28 0 69 13q61 20 86 20 q19 0 19 -11q0 -2 -1 -5q-4 -16 -45 -45q-76 -59 -125 -64h-10q-44 0 -82 40q-29 31 -39 62.5t-10 103.5z" />
<glyph unicode="j" horiz-adv-x="530" d="M20 84q0 72 12.5 117t30.5 45q11 0 11 -22q0 -34 -25 -120q-1 -5 -1 -10q0 -40 75 -117q86 -88 135 -88q145 0 174 258q14 132 14 165v7q-2 10 -7 57.5t-8 87.5t-6 84q-2 26 -2 46q0 14 1 24q2 27 10 27q14 0 21.5 -6t14.5 -37t12 -77t16 -146q12 -118 12 -190 q0 -40 -4 -65q-10 -71 -72 -210q-23 -51 -43 -69.5t-61 -26.5q-16 -3 -33 -3q-83 0 -171 76q-106 91 -106 193zM328 860q13 20 29 20q14 0 30 -14q28 -23 28 -53q0 -12 -5 -25q-6 -14 -12 -18q-2 -2 -4 -2q-5 0 -10 4q-9 6 -28 25q-31 33 -31 53q0 5 3 10z" />
<glyph unicode="k" horiz-adv-x="679" d="M23 621v24q4 344 24 381q7 16 19 24q10 7 18 7h4q16 -4 16 -136q0 -61 -4 -147q-4 -98 -3 -164q0 -120 12 -137q4 -4 12 -4q23 0 77 36q72 48 151 113.5t155 109.5q51 29 77 29q13 0 21 -7q11 -11 11 -25q0 -41 -111 -100q-72 -37 -107 -76q-27 -29 -27.5 -41t21.5 -47 q20 -31 66.5 -62.5t90.5 -54t77.5 -50.5t35.5 -52q0 -14 -18 -14q-29 0 -102 34q-131 57 -158 109q-18 35 -62 57q-14 7 -30 7q-23 1 -49 -13q-46 -22 -121 -92q-45 -40 -66 -40q-8 0 -12 5q-20 24 -20 210q0 51 2 116z" />
<glyph unicode="l" horiz-adv-x="251" d="M21 348q0 20 20 80q53 154 83 276.5t35 178t10 92.5t13 51q12 18 22.5 18t18.5 -18q8 -16 8 -45q0 -70 -24.5 -210t-38.5 -157q-16 -18 -16 -67q0 -33 -9.5 -71t-17.5 -63.5t-8 -51t14 -44.5q29 -35 -6 -45q-8 -2 -16 -2l-62 31q-26 28 -26 47z" />
<glyph unicode="m" horiz-adv-x="915" d="M20 371q0 76 21 110q18 33 39 90q10 31 24.5 40.5t24.5 -6t10 -50.5q0 -45 17 -45q20 0 104 86q88 93 129 109q38 18 64 18q17 0 28 -8q29 -19 33 -90q6 -109 24 -118q2 -1 5 -1q22 0 90 49q98 70 121 70q27 0 54.5 -77t33.5 -167q8 -106 30 -148q23 -42 23 -61v-3 q-2 -19 -31 -32q-14 -5 -26 -5q-22 0 -38 18q-24 26 -31 78.5t-10 106.5t-7 100t-15 57q-3 4 -9 4q-17 0 -55 -31q-52 -41 -104.5 -90t-64.5 -49q-66 0 -66 163q0 113 -22 127q-1 1 -3 1q-23 -1 -143 -117q-130 -126 -131 -150q0 -23 -41 -53.5t-57 -20.5q-21 13 -21 95z " />
<glyph unicode="n" horiz-adv-x="641" d="M31 223q-10 9 -10 37q0 30 10 78q20 96 67 203q27 57 38 67t30.5 -9t19.5 -35.5t-22 -57.5q-25 -48 -25 -66q1 -6 3 -8q1 -1 4 -2q18 0 98 68q61 49 107 82.5t78 55t58.5 29t38.5 10.5q3 1 6 0q10 -1 22 -9q15 -12 20.5 -16.5t19.5 -24.5q16 -23 22 -37q6 -12 6 -34v-8 q-1 -28 -6.5 -53.5t-18.5 -98t-24 -148.5q-12 -88 -43 -88q-28 0 -28 82v19q4 101 17 193q5 39 5 66q0 38 -10 53q-3 2 -9 2q-27 -1 -111 -61q-100 -72 -212 -180q-72 -74 -105.5 -97.5t-45.5 -11.5z" />
<glyph unicode="o" horiz-adv-x="692" d="M38 618q44 108 173 152q91 29 144 30q7 0 13 -1q54 -4 119 -54q133 -96 170 -187q15 -37 15 -76q0 -55 -31 -113q-45 -86 -104.5 -118t-176.5 -32q-121 0 -188.5 38t-114.5 130q-37 72 -37 139q0 48 18 92zM98 512q0 -51 13.5 -82t56.5 -76q48 -53 74 -61q15 -5 50 -5 q26 0 64 3q78 4 111 16t74 53q35 37 48 66t13 72q0 47 -17.5 75.5t-78.5 83.5q-102 89 -166 89q-36 0 -61 -29q-18 -23 -52 -38t-61 -25.5t-47.5 -45.5t-20.5 -96z" />
<glyph unicode="p" horiz-adv-x="532" d="M20 571v49q0 86 6 114q7 36 44 73q45 49 88 52h6q43 0 123 -38q92 -45 158.5 -126t66.5 -150q0 -90 -88 -153q-72 -53 -157 -53q-19 0 -38 3q-22 2 -38 2q-37 0 -45 -12q-4 -8 -4 -36q0 -45 10 -140q8 -75 8 -113q0 -11 -1 -19q-3 -34 -22 -51q-17 -14 -29 -14 q-18 0 -24 31q-10 39 -10 166q0 162 -24.5 208t-29.5 207zM104 676q-1 -4 -1 -8q0 -33 12 -103q20 -127 33 -145q7 -12 45 -12q22 0 55 4q72 8 128 49t56 88q0 39 -47 100t-104 96q-59 36 -93 36h-2q-34 -1 -61 -44q-20 -29 -21 -61z" />
<glyph unicode="q" horiz-adv-x="694" d="M20 586q-2 72 67 182.5t118 120.5q45 8 74 8q14 0 23 -2q30 -6 71 -41q63 -53 77 -146q3 -22 3 -43q0 -71 -35 -137q-41 -82 -41 -143q0 -37 -14.5 -86t-30 -84t-15.5 -41q0 -8 9 -8q30 0 163 92q51 35 83 53.5t54.5 23.5t32 -3t13.5 -31q1 -4 1 -7q0 -31 -63 -56 q-29 -12 -91 -60.5t-120 -105.5q-49 -47 -78.5 -74t-52.5 -38q-15 -7 -24 -7q-6 0 -10 3q-9 7 -11 38q-1 8 -1 16q0 26 5 60q6 45 19 120q26 156 26 197q0 12 -2 15q-10 10 -82 14q-63 4 -114 57t-54 113zM109 616q-2 -16 -2 -29q0 -67 49 -79q8 -2 18 -2q43 2 84 29.5 t69.5 67.5t44.5 83q10 28 10 55q0 13 -3 26q-8 38 -39 54q-34 19 -54 19q-4 0 -8 -1q-20 -5 -73 -46q-84 -66 -96 -177z" />
<glyph unicode="r" horiz-adv-x="645" d="M23 710q6 54 28 54q18 0 19 -57q0 -59 18 -69q3 -2 7 -1q17 0 42 37q51 79 180 110q49 12 65 16q7 2 12 1q6 0 10 -2q8 -4 10 -11.5t30.5 -16.5t81.5 -17q102 -14 99 -33q-8 -27 -174 -27q-121 0 -151 -10t-91 -70l-82 -79l12 -117q7 -56 7 -82q0 -14 -2 -18 q-4 -11 -22 -11q-7 0 -16 2q-20 2 -30 9.5t-15.5 28t-7.5 44t-8 77.5t-14 110q-10 55 -10 97q0 19 2 35z" />
<glyph unicode="s" horiz-adv-x="532" d="M20 496l41 -56q29 -37 55.5 -46t104.5 -9q115 0 127 21q6 8 -23.5 44.5t-72.5 79.5q-104 100 -112 156q-1 5 -1 11q0 52 70 118q45 43 74.5 55.5t85.5 12.5q55 0 78.5 -9.5t41.5 -39.5q24 -35 24 -51q0 -7 -5 -11q-12 -10 -47 33l-39 49l-90 -45q-90 -43 -105 -98 q-4 -13 -3 -25q0 -22 12 -40q18 -28 100 -101q123 -111 123 -172q1 -9 -1 -15q-14 -50 -130 -50q-26 0 -58 3q-127 10 -183 39t-62 86z" />
<glyph unicode="t" horiz-adv-x="587" d="M25 645q12 18 59 19q37 0 57.5 33.5t56 111.5t85.5 143q63 80 75 117q6 15 18 23q8 6 16 5q3 0 7 -1q31 -10 30 -49t-32 -72q-41 -45 -102.5 -155.5t-61.5 -141.5q0 -25 41 -33t189 -10q84 0 84 -17q0 -24 -137 -38q-59 -4 -84 -7.5t-52.5 -10.5t-35 -11t-15.5 -18.5 t-9 -26.5t-1 -41q0 -57 13.5 -74.5t75.5 -45.5q64 -28 84 -29h1q21 0 63 25q44 26 57 26t38 -25q22 -22 22 -35q0 -12 -14 -28q-38 -47 -127 -47q-16 0 -34 2q-116 10 -197 75q-33 27 -48.5 75t-15.5 89t-8 70.5t-31 25.5q-30 -4 -56 25q-17 19 -16 34q0 9 5 17z" />
<glyph unicode="u" horiz-adv-x="569" d="M24 398q-4 18 -4 41t5 50q12 89 52 153q33 53 54 53q5 -1 9 -3q9 -6 8 -19q0 -22 -21 -65q-33 -64 -33 -154v-10q2 -96 41 -143q42 -54 91 -54q8 0 16 1q58 10 149 98q75 70 89 96q10 18 9 47q0 14 -2 31q-2 18 -5 38t-5 31t-4 23.5t-2 19.5t2 12t7 7t14 2q33 0 48 -58 q8 -30 7 -66q0 -34 -6 -74q-8 -57 -28.5 -93t-74.5 -90q-70 -70 -119 -90q-35 -14 -85 -14q-20 0 -43 2q-43 4 -65 24.5t-58 96.5q-38 69 -46 107z" />
<glyph unicode="v" horiz-adv-x="616" d="M20 620q-2 9 -1 16q0 21 14 28h14t14.5 -14.5t17.5 -27t21.5 -37t28.5 -44.5q35 -53 35 -92t31 -64q20 -16 31.5 -12t33.5 35q106 151 219 421q20 52 42 52t52 -50q23 -34 23 -48q0 -13 -39 -46q-25 -23 -64.5 -92.5t-78.5 -148t-79 -151.5t-78 -107q-22 -20 -39 -20 q-13 0 -23 11q-29 27 -70 104t-41 99q0 8 -14.5 45t-29 72t-20.5 71z" />
<glyph unicode="w" horiz-adv-x="1028" d="M25 784q11 18 23 18h4q14 -2 46 -32q35 -33 35 -121q0 -100 38 -212.5t75 -125.5q2 -1 3 -1q17 0 73 52q60 56 118 110q48 46 62 46q3 0 4 -2q12 -12 35 -76q23 -73 64 -73q34 0 79 51q55 63 66 106q0 33 53 124t82 110q23 14 55 14q11 0 22 -2q46 -6 46 -31 q0 -18 -67 -56t-93 -122q-41 -129 -109.5 -221t-126.5 -92h-2q-31 0 -92 61l-65 64l-82 -94q-83 -93 -128 -93h-1q-45 2 -95 105q-43 86 -74.5 252t-41.5 186q-11 21 -11 37q0 10 5 18z" />
<glyph unicode="x" horiz-adv-x="518" d="M20 748q0 37 19 37q8 0 20 -7q27 -16 56 -61q47 -68 94 -111l49 -45l68 51q34 24 74 40q36 14 62 14h7q29 -2 29 -21q0 -51 -31 -51q-20 0 -74.5 -42t-54.5 -58q0 -18 80 -117q67 -83 67 -117q0 -14 -10 -20q-8 -6 -22 -9h-5q-32 0 -75 70q-37 55 -54.5 78.5t-42 31 t-46 -5t-64.5 -47.5q-75 -58 -101 -58q-7 0 -11 4q-18 18 6 58.5t69 69.5q48 32 48 65v6q-5 36 -77 115q-33 37 -56.5 76.5t-23.5 53.5z" />
<glyph unicode="y" horiz-adv-x="751" d="M33 -2q5 3 12 3q23 0 64 -38q43 -41 99 -59.5t165 -26.5q15 -1 28 -1q89 0 130 46q47 53 79 228q27 143 27 181q0 11 -2 13q-6 6 -19.5 -1t-50.5 -28.5t-78 -40.5q-70 -31 -104 -49q-20 -11 -45 -11q-29 0 -66 15q-67 27 -120 88q-41 47 -51.5 80t-10.5 119q1 131 21 170 q17 32 28 32q17 0 19 -69q0 -37 -2 -90l-11 -145l72 -64q63 -55 98 -59h7q36 0 114 35q74 33 136.5 114.5t82.5 171.5q20 76 52 84q2 1 4 1q13 0 18 -23q3 -9 3 -24q0 -7 -1 -15q-8 -135 -19.5 -241.5t-22.5 -188.5t-23.5 -141.5t-26.5 -100.5t-30.5 -67.5t-35 -41 t-39 -19.5t-43 -6t-49.5 -1q-23 2 -34 2q-90 0 -140.5 9t-111.5 40q-136 68 -136 103q0 9 13 16z" />
<glyph unicode="z" horiz-adv-x="600" d="M20 336q0 37 31 51l115 57q88 41 106 41t87 52.5t69 66.5q0 6 -34 24t-82 28q-17 4 -35 3q-32 0 -64 -12q-46 -20 -96 -20q-14 0 -29 2q-49 5 -60 29q-5 12 -5 35q0 26 6 65q10 4 26 3q11 0 26 -1q36 -4 119 -12q66 -6 111 -5h23h16q178 0 178 -126q0 -44 -18 -67.5 t-94 -72.5q-109 -71 -136 -71h-1q-31 0 -60 -13.5t-29 -27.5q0 -12 86 -13.5t182.5 -3.5t112.5 -18q9 -9 9 -17q0 -12 -25 -20q-16 -5 -33.5 -5t-38.5 5q-15 4 -43 4q-50 0 -141 -14q-68 -10 -122 -10q-45 0 -80 7q-77 15 -77 56z" />
<glyph unicode="{" horiz-adv-x="794" d="M25 623q-16 31 36 39q16 2 37 2q63 0 133 57t105 137q39 88 51 163t-10 89q-27 16 -16.5 35.5t59.5 54.5q39 25 74.5 31t107.5 2q94 -8 125 -24.5t23 -59.5q-4 -20 -22.5 -29.5t-63.5 -11.5h-25q-41 -2 -57.5 -2t-38 -8t-27.5 -13.5t-19.5 -31t-19.5 -46t-22 -73.5 q-6 -20 -9 -31q-33 -111 -92 -184q-63 -78 -53 -88q6 -6 37 -6q45 0 81 -23.5t36 -54.5q0 -37 -39 -125q-37 -82 -40 -221.5t32 -188.5q29 -41 72.5 -41t131.5 43q111 55 152 29q35 -18 -27 -66q-20 -14 -47 -28l-135 -74q-57 -31 -91 -22.5t-81 61.5q-123 139 -100 367 q2 20 6 55q6 53 8 74.5t1 49t-3 34t-16.5 17.5t-25.5 14t-42 10q-20 6 -31 8q-131 33 -155 80z" />
<glyph unicode="|" horiz-adv-x="208" d="M21 -208.5q-3 22.5 10 87.5q18 88 35.5 675t37.5 644q6 16 13.5 17.5t21.5 -13.5q18 -18 19.5 -206.5t-6 -405.5t-5 -404.5t20.5 -201.5q66 -55 -72 -275q-2 -2 -8 2t-16.5 12.5t-20.5 18.5q-27 27 -30 49.5z" />
<glyph unicode="}" horiz-adv-x="495" d="M25 -80q-12 31 14.5 58.5t63 29.5t67.5 -22q23 -20 86 12q45 25 52 42t1 79q-10 88 -82 176q-59 72 -67 108.5t30 59.5q23 14 19 27.5t-47 50.5q-66 55 -66 80q0 10 28 28.5t66 36.5q92 41 148.5 94.5t56.5 100.5q0 43 -87 132t-130 89q-33 0 -59.5 28.5t-12.5 51.5 q12 18 30 17t79 -23q123 -43 191.5 -131.5t68.5 -200.5q0 -57 -14.5 -85t-71.5 -79l-84 -78l78 -65q51 -43 60.5 -60.5t-5.5 -38.5q-27 -31 -69 -37q-96 -14 -7 -145q55 -80 54.5 -175t-58.5 -151q-37 -35 -65.5 -42t-122.5 -3q-135 8 -145 35z" />
<glyph unicode="~" horiz-adv-x="856" d="M23.5 558q11.5 44 56.5 89q57 57 110.5 53t133.5 -75q188 -166 335 -121q35 10 59.5 26.5t33 29.5t18.5 24.5t15.5 10.5t23.5 -13q33 -27 23.5 -55.5t-64.5 -71.5q-80 -61 -154.5 -64.5t-158.5 51.5q-92 63 -110.5 63.5t-65.5 49.5q-49 53 -104.5 49t-84.5 -61 q-14 -25 -28.5 -39.5t-22.5 -7.5q-27 18 -15.5 62z" />
<glyph unicode="&#xa2;" />
<glyph unicode="&#xa3;" horiz-adv-x="987" d="M20 165q0 15 23 58q35 68 84 95.5t137 27.5q72 0 91.5 9.5t35.5 50.5q25 57 29 163l2 105l-129 10q-74 6 -101.5 14.5t-27.5 25.5t28.5 24.5t106.5 11.5l135 6l49 106q37 82 110 186.5t116 139.5q29 23 98.5 18.5t77.5 -28.5q4 -16 -17.5 -29.5t-61.5 -33t-63 -38.5 q-45 -43 -98 -129t-63 -137l-15 -63l178 14q180 12 193 -8q16 -25 -1 -36t-81 -17l-315 -37l-15 -109q-8 -72 -22.5 -124t-23.5 -74.5t-9 -28.5t30.5 -22.5t83 -44t85.5 -48.5q41 -18 54 -13t42 20.5t57 15.5q33 0 70 35q33 31 56.5 13t15.5 -67q-2 -25 -27 -43t-86 -39 q-96 -33 -162.5 -21.5t-140.5 73.5q-59 49 -94 46t-93 -63q-41 -41 -74.5 -56t-97.5 -24q-66 -8 -93 -3t-50 28q-27 25 -27 40zM154 176q16 -10 77.5 21t61.5 49t-31 21t-64.5 -9t-43.5 -31q-20 -39 0 -51z" />
<glyph unicode="&#xa7;" />
<glyph unicode="&#xab;" horiz-adv-x="946" d="M31 508q-18 33 2 57.5t100 97t156 168.5q109 141 129 84q4 -10 6 -24q2 -25 -67.5 -112t-138 -162.5t-64.5 -79.5q18 -14 84.5 -43t83.5 -29q16 0 48.5 -12.5t96 -40t115.5 -45.5q51 -20 61 -49t-27 -46q-25 -8 -77 9.5t-129.5 50.5t-130.5 45q-45 12 -110 50t-85 38 q-31 0 -53 43zM428 584q0 25 50 75t122 111t94 86q37 39 61.5 44t49.5 -23q18 -23 0.5 -47.5t-121.5 -112.5q-117 -96 -117 -121q0 -29 112 -80t173 -51q53 0 63.5 -9.5t10.5 -60.5q0 -66 -33 -73q-20 -4 -35 22q-12 18 -76 33q-84 16 -219 96t-135 111z" />
<glyph unicode="&#xad;" horiz-adv-x="624" d="M20 504q1 10 7 20t21 12.5t50 -4t79 -13.5t125 -14t171 -9q78 0 104.5 -6.5t26.5 -24.5q0 -33 -101.5 -41t-262.5 12q-215 27 -220 68z" />
<glyph unicode="&#xbb;" horiz-adv-x="1021" d="M20 479q0 20 95.5 69.5t163.5 63.5q49 12 79 33q25 16 0 43q-23 27 -147 127q-78 61 -64 84q10 16 24.5 19.5t33 -7t39 -26t48 -39t57.5 -47t68 -49t77 -45.5q109 -53 71 -87q-20 -16 -178 -71q-125 -43 -211 -84q-84 -41 -120 -37t-36 53zM487 426q0 31 30 55.5 t130 75.5q66 35 112 66.5t46 42t-20.5 28t-47.5 33.5q-82 41 -163.5 116t-69.5 95t24.5 21.5t31 -13t37.5 -34t55 -46t75 -45.5q209 -102 252 -151q18 -20 20 -36t-13 -27t-39.5 -21.5t-61.5 -23.5t-75 -28.5t-84 -42t-87 -57.5q-152 -119 -152 -8z" />
<glyph unicode="&#xbf;" />
<glyph unicode="&#xc0;" />
<glyph unicode="&#xc1;" />
<glyph unicode="&#xc2;" />
<glyph unicode="&#xc4;" />
<glyph unicode="&#xc7;" />
<glyph unicode="&#xc8;" />
<glyph unicode="&#xc9;" />
<glyph unicode="&#xca;" />
<glyph unicode="&#xcb;" />
<glyph unicode="&#xce;" />
<glyph unicode="&#xcf;" />
<glyph unicode="&#xd1;" />
<glyph unicode="&#xd3;" />
<glyph unicode="&#xd4;" />
<glyph unicode="&#xd6;" />
<glyph unicode="&#xd9;" />
<glyph unicode="&#xda;" />
<glyph unicode="&#xdb;" />
<glyph unicode="&#xdc;" />
<glyph unicode="&#xdf;" />
<glyph unicode="&#xe0;" />
<glyph unicode="&#xe1;" />
<glyph unicode="&#xe2;" />
<glyph unicode="&#xe4;" />
<glyph unicode="&#xe7;" />
<glyph unicode="&#xe8;" />
<glyph unicode="&#xe9;" />
<glyph unicode="&#xea;" />
<glyph unicode="&#xeb;" />
<glyph unicode="&#xee;" />
<glyph unicode="&#xef;" />
<glyph unicode="&#xf3;" />
<glyph unicode="&#xf4;" />
<glyph unicode="&#xf6;" />
<glyph unicode="&#xf9;" />
<glyph unicode="&#xfa;" />
<glyph unicode="&#xfb;" />
<glyph unicode="&#xfc;" />
<glyph unicode="&#x2000;" horiz-adv-x="682" />
<glyph unicode="&#x2001;" horiz-adv-x="1365" />
<glyph unicode="&#x2002;" horiz-adv-x="682" />
<glyph unicode="&#x2003;" horiz-adv-x="1365" />
<glyph unicode="&#x2004;" horiz-adv-x="455" />
<glyph unicode="&#x2005;" horiz-adv-x="341" />
<glyph unicode="&#x2006;" horiz-adv-x="227" />
<glyph unicode="&#x2007;" horiz-adv-x="227" />
<glyph unicode="&#x2008;" horiz-adv-x="170" />
<glyph unicode="&#x2009;" horiz-adv-x="273" />
<glyph unicode="&#x200a;" horiz-adv-x="75" />
<glyph unicode="&#x2010;" horiz-adv-x="624" d="M20 504q1 10 7 20t21 12.5t50 -4t79 -13.5t125 -14t171 -9q78 0 104.5 -6.5t26.5 -24.5q0 -33 -101.5 -41t-262.5 12q-215 27 -220 68z" />
<glyph unicode="&#x2011;" horiz-adv-x="624" d="M20 504q1 10 7 20t21 12.5t50 -4t79 -13.5t125 -14t171 -9q78 0 104.5 -6.5t26.5 -24.5q0 -33 -101.5 -41t-262.5 12q-215 27 -220 68z" />
<glyph unicode="&#x2012;" horiz-adv-x="624" d="M20 504q1 10 7 20t21 12.5t50 -4t79 -13.5t125 -14t171 -9q78 0 104.5 -6.5t26.5 -24.5q0 -33 -101.5 -41t-262.5 12q-215 27 -220 68z" />
<glyph unicode="&#x2013;" horiz-adv-x="1064" d="M20 504q2 10 12 20q11 10 37 12.5t87.5 -4t138.5 -13.5t219 -14t300 -9q137 0 183.5 -6.5t46.5 -24.5q0 -33 -178 -41t-460 12q-377 27 -386 68z" />
<glyph unicode="&#x2014;" horiz-adv-x="2088" d="M20 504q4 10 25 20t73.5 12.5t175 -4t277 -13.5t438.5 -14t600 -9q273 0 366 -6.5t93 -24.5q0 -33 -356 -41t-920 12q-754 27 -772 68z" />
<glyph unicode="&#x201c;" horiz-adv-x="811" d="M23 994q-7 20 2 65q18 111 32.5 141.5t61.5 59.5q51 31 113.5 38t99.5 -16q41 -27 0 -47q-27 -14 -68 -14q-68 0 -98 -31q-23 -23 -18.5 -37t36.5 -55q45 -53 47 -78t-30 -62q-59 -63 -142 -4q-29 20 -36 40zM465 1126q4 14 31.5 39t60.5 45q39 25 95.5 39.5t97.5 13.5 t41 -18q0 -23 -29 -43t-62 -20q-45 0 -88 -43t-28 -76q35 -82 17.5 -131t-81.5 -49q-123 0 -55 243z" />
<glyph unicode="&#x201e;" horiz-adv-x="753" d="M20 -88q-2 16 3.5 26.5t15.5 10.5q31 0 94.5 54t63.5 83q0 35 -41 72q-37 33 -39 80t33 67q39 23 65.5 18.5t58.5 -34.5q25 -27 30 -54.5t-1 -101.5q-8 -78 -23.5 -108.5t-72.5 -81.5q-66 -61 -121 -69.5t-66 38.5zM479 -104q-6 33 39 51t92 67l47 49l-43 23 q-43 25 -53 75t23 85q12 16 30.5 24.5t28.5 3.5q35 -14 62.5 -68t27.5 -110q0 -47 -17.5 -77.5t-72.5 -86.5q-119 -119 -156 -61q-6 8 -8 25z" />
<glyph unicode="&#x2022;" />
<glyph unicode="&#x202f;" horiz-adv-x="273" />
<glyph unicode="&#x205f;" horiz-adv-x="341" />
<glyph unicode="&#x20ac;" horiz-adv-x="763" d="M20 862q2 31 95 37q61 6 95 20.5t48 39t26.5 51t50.5 64.5t99 71q92 47 143.5 52t114.5 -28q51 -27 51 -59q0 -20 -34 -10q-100 29 -188.5 0t-141.5 -111q-41 -61 6 -78q37 -10 145 -6q104 6 127 1t23 -34q0 -27 -26.5 -34t-141.5 -11q-96 -4 -138 -12t-55 -27 q-41 -51 -4 -59q23 -6 93 0q168 14 172 -33q2 -10 -11 -24q-23 -27 -145 -27q-106 0 -138 -22.5t-32 -92.5q0 -66 72 -145q59 -66 101 -73t124 34q63 33 111.5 23.5t48.5 -52.5q0 -39 -50.5 -57t-168.5 -20l-158 -2l-90 86q-61 61 -72.5 86.5t-3.5 87.5q8 59 2 75.5 t-43 30.5q-47 16 -45 42t51 52q43 20 63.5 54t2.5 53q-14 16 -95 22q-86 6 -84 35z" />
<glyph unicode="&#xe000;" horiz-adv-x="788" d="M0 0v788h788v-788h-788z" />
</font>
</defs>
</svg>
